<svg viewBox="0 0 225.59 298.57" xmlns="http://www.w3.org/2000/svg" xmlns:xlink="http://www.w3.org/1999/xlink"><g transform="translate(-261.68 -147.28)"><path d="m432.39 198.11q-26 0-36.54 13.43t-10.54 42.61q0 45.93 26.86 45.92a56.59 56.59 0 0 0 7.22-.28q-3.47 0-5.63-12.14a144.65 144.65 0 0 1 -2.17-25.41q0-13.29 7.22-17.19t20.08-3.9q12.86 0 17.91.14a95.19 95.19 0 0 1 11.55 1.16 29.46 29.46 0 0 1 10 3 15 15 0 0 1 8.08 13.87v42.17q0 22.53-8.08 36t-30.35 15.73q-31.2 3.18-95.32 3.18-25.71 0-44.05-8.09t-28.45-22.53q-18.5-26.86-18.49-68.31t26.58-73.8q26.56-32.34 70.73-34.67 30.33-1.74 43.91-1.73 49.4 0 70.19 6.06 14.14 4 14.15 22.82 0 25.13-14.73 25.13-4.62-.28-18.49-1.73t-21.64-1.44z" fill="#fff"/><g fill="#fff"><path d="m298.19 392.24h5.92v12q-5 5.46-14.2 5.47a17.94 17.94 0 0 1 -13-5.12 18.62 18.62 0 0 1 .1-26 17.83 17.83 0 0 1 12.93-5.22 18.32 18.32 0 0 1 12.59 4.42l-3.16 4.51a12.26 12.26 0 0 0 -4.14-2.43 15.71 15.71 0 0 0 -4.84-.68 12.44 12.44 0 0 0 -8.93 3.44 12.35 12.35 0 0 0 8.4 21.41 15.19 15.19 0 0 0 8.36-2.16z"/><path d="m319 401.33-3.52 8h-6.32l15.46-35.08h6.38l15.46 35.08h-6.33l-3.51-8zm15.15-5.48-6.35-14.45-6.38 14.45z"/><path d="m364.28 379.64v29.66h-5.92v-29.66h-10.64v-5.42h27.2v5.42z"/><path d="m394.47 378.84a7.68 7.68 0 0 0 -4.24 1.06 3.5 3.5 0 0 0 -1.66 3.18 3.69 3.69 0 0 0 1.66 3.26q1.65 1.14 7 2.44a19.43 19.43 0 0 1 8.13 3.66q2.73 2.35 2.73 6.95a9.22 9.22 0 0 1 -3.46 7.46 13.85 13.85 0 0 1 -9.08 2.86 21.35 21.35 0 0 1 -14.55-5.71l3.72-4.47q5.31 4.62 11 4.62a7.54 7.54 0 0 0 4.54-1.23 3.86 3.86 0 0 0 1.68-3.27 3.68 3.68 0 0 0 -1.58-3.16 16.67 16.67 0 0 0 -5.45-2.06 47.67 47.67 0 0 1 -5.87-1.7 13.47 13.47 0 0 1 -3.56-2q-3.11-2.37-3.11-7.23a8.78 8.78 0 0 1 3.54-7.5 14.21 14.21 0 0 1 8.75-2.64 20.89 20.89 0 0 1 6.68 1.11 17.32 17.32 0 0 1 5.72 3.11l-3.16 4.46a12 12 0 0 0 -4.22-2.3 16 16 0 0 0 -5.21-.9z"/><path d="m433.34 409.3h-15.34v-35.08h13.65a19.63 19.63 0 0 1 6.15.86 8.49 8.49 0 0 1 3.84 2.31 9 9 0 0 1 2.41 6.12q0 4.11-2.61 6.12a11.54 11.54 0 0 1 -1.31.88c-.23.12-.65.31-1.25.58a9.2 9.2 0 0 1 5.19 2.93 8.18 8.18 0 0 1 1.94 5.55 9.44 9.44 0 0 1 -2.51 6.47q-2.99 3.27-10.16 3.26zm-9.44-20.52h7.53c4.28 0 6.43-1.46 6.43-4.37a4.12 4.12 0 0 0 -1.56-3.61 8.37 8.37 0 0 0 -4.82-1.11h-7.58zm0 15.05h9.29a9.94 9.94 0 0 0 5-1c1.16-.69 1.73-2 1.73-3.89q0-4.68-7.48-4.67h-8.54z"/><path d="m468.77 409.3h-6v-13.85l-13.07-21.23h6.47l9.59 16 9.58-16h6.48l-13.05 21.23z"/><path d="m292.46 425.86 4.16.06a2.47 2.47 0 0 1 1.44.36 2.05 2.05 0 0 1 .75 1.19l1.83 6a.46.46 0 0 0 .2.33.27.27 0 0 0 .3 0 .49.49 0 0 0 .21-.3l2.52-8.14a1.43 1.43 0 0 1 .55-.84 2.24 2.24 0 0 1 1.18-.24h3.4a.83.83 0 0 1 .81.54 1.19 1.19 0 0 1 .12.54 7.42 7.42 0 0 1 -.55 1.69q-.56 1.39-2.47 7.29a86.55 86.55 0 0 1 -3.32 8.94q-1.2 2.52-4.64 2.52a7.57 7.57 0 0 1 -3.5-.85 4.51 4.51 0 0 1 -2.2-2.13c-.37-.85-.86-2.09-1.47-3.73l-1.27-3.41a68.51 68.51 0 0 1 -2.79 7.58 3.87 3.87 0 0 1 -2.08 1.85 8.21 8.21 0 0 1 -3.33.66c-2.92 0-4.85-1.08-5.81-3.23q-4.58-10.43-6.22-15.3a4.63 4.63 0 0 1 -.28-1.24c0-1.12.53-1.68 1.58-1.68l8.56-.09a2.83 2.83 0 0 1 1.65.39 2.78 2.78 0 0 1 .87 1.5l2.09 7.36a.53.53 0 0 0 .21.36q.33.18.51-.33l2-6.11a1.84 1.84 0 0 1 1.85-1.46c1.27-.06 2.31-.08 3.14-.08z"/><path d="m325.78 441.36v2.51c0 .86-.59 1.32-1.76 1.38s-2.43.09-3.8.09-2.92 0-4.68-.15a2.05 2.05 0 0 1 -1.39-.6 2.14 2.14 0 0 1 -.62-1.22q-.24-2.64-.24-8.28t.18-8.22a2.43 2.43 0 0 1 2.61-2.6c1.85 0 3.84-.06 5.95-.06s4.41 0 6.87.09a7.88 7.88 0 0 1 6 2.78 8.85 8.85 0 0 1 2.34 5.93 7.28 7.28 0 0 1 -2.07 5.33 8.13 8.13 0 0 1 -6 2.09h-2.34a1.11 1.11 0 0 0 -.72.27.84.84 0 0 0 -.33.66zm0-10.83.06 5.53c0 .38.21.57.62.57a4 4 0 0 0 2.92-1 3.28 3.28 0 0 0 1.06-2.44 3.34 3.34 0 0 0 -1-2.43 4 4 0 0 0 -3-1c-.44-.04-.69.24-.69.77z"/><path d="m357.38 427.53v17.69h-3.53v-17.69h-6.35v-3.23h16.23v3.23z"/><path d="m368.31 445.22v-20.92h3.53v9.07h10.38v-9.07h3.53v20.92h-3.53v-8.56h-10.38v8.56z"/><path d="m407 424.3v3.32h-11.16v5.54h10v3.14h-10v5.6h11.52v3.32h-15.05v-20.92z"/><path d="m416.16 445.22h-3.53v-20.92h5.51l6.31 13.14 6.32-13.14h5.48v20.92h-3.54v-16.34l-7.3 14.51h-2l-7.28-14.51z"/><path d="m457.5 424.3v3.32h-11.17v5.54h10v3.14h-10v5.6h11.52v3.32h-15.05v-20.92z"/><path d="m469.45 427.05a4.63 4.63 0 0 0 -2.53.63 2.09 2.09 0 0 0 -1 1.9 2.21 2.21 0 0 0 1 1.95 14.94 14.94 0 0 0 4.21 1.45 11.73 11.73 0 0 1 4.85 2.18 5.21 5.21 0 0 1 1.63 4.15 5.46 5.46 0 0 1 -2.07 4.44 8.19 8.19 0 0 1 -5.41 1.71 12.73 12.73 0 0 1 -8.71-3.38l2.21-2.67a10 10 0 0 0 6.59 2.76 4.48 4.48 0 0 0 2.7-.74 2.28 2.28 0 0 0 1-1.94 2.19 2.19 0 0 0 -.95-1.89 9.86 9.86 0 0 0 -3.24-1.22 29.28 29.28 0 0 1 -3.51-1 8 8 0 0 1 -2.12-1.21 5.07 5.07 0 0 1 -1.86-4.31 5.27 5.27 0 0 1 2.11-4.48 8.5 8.5 0 0 1 5.23-1.57 12.53 12.53 0 0 1 4 .66 10.65 10.65 0 0 1 3.42 1.83l-1.91 2.7a7 7 0 0 0 -2.51-1.38 9.68 9.68 0 0 0 -3.13-.57z"/></g></g></svg>